<svg id="Layer_1" data-name="Layer 1" xmlns="http://www.w3.org/2000/svg" viewBox="0 0 24 23.93"><defs><style>.cls-1{fill:#3b5998;}.cls-2{fill:#fff;}</style></defs><title>facebook-colored</title><path class="cls-1" d="M24,.07V24H13.87V15.54h2.8l.53-3.47H13.87V9.82a1.74,1.74,0,0,1,2-1.87h1.51V5a18,18,0,0,0-2.68-.24c-2.74,0-4.54,1.66-4.54,4.67v2.64h-3v3.47h3V24H0V.07Z" transform="translate(0 -0.07)"/><path class="cls-2" d="M13.87,9.82v2.25H17.2l-.53,3.47h-2.8V24H10.12V15.54h-3V12.07h3V9.43c0-3,1.8-4.67,4.54-4.67A18,18,0,0,1,17.34,5V8H15.83A1.74,1.74,0,0,0,13.87,9.82Z" transform="translate(0 -0.07)"/></svg>