<svg id="Layer_1" data-name="Layer 1" xmlns="http://www.w3.org/2000/svg" viewBox="0 0 24 24"><defs><style>.cls-1{fill:#7a7a7a;}.cls-2{fill:#4b4b4b;}</style></defs><title>instagram-gray</title><rect class="cls-1" width="24" height="24"/><path class="cls-2" d="M12,1.49c-2.85,0-3.21,0-4.33.06A7.93,7.93,0,0,0,5.12,2,5.31,5.31,0,0,0,3.25,3.25,5.22,5.22,0,0,0,2,5.12a7.93,7.93,0,0,0-.49,2.55C1.5,8.79,1.49,9.15,1.49,12s0,3.21.06,4.33A7.93,7.93,0,0,0,2,18.88a5.31,5.31,0,0,0,1.21,1.87A5.22,5.22,0,0,0,5.12,22a7.93,7.93,0,0,0,2.55.49c1.12.05,1.48.06,4.33.06s3.21,0,4.33-.06A7.93,7.93,0,0,0,18.88,22a5.31,5.31,0,0,0,1.87-1.21A5.22,5.22,0,0,0,22,18.88a7.93,7.93,0,0,0,.49-2.55c.05-1.12.06-1.48.06-4.33s0-3.21-.06-4.33A7.93,7.93,0,0,0,22,5.12a5.31,5.31,0,0,0-1.21-1.87A5.22,5.22,0,0,0,18.88,2a7.93,7.93,0,0,0-2.55-.49C15.21,1.5,14.85,1.49,12,1.49Zm0,1.89c2.81,0,3.14,0,4.25.06a5.7,5.7,0,0,1,1.95.37,3.41,3.41,0,0,1,2,2,5.52,5.52,0,0,1,.36,2c.05,1.11.07,1.44.07,4.25s0,3.14-.07,4.25a5.7,5.7,0,0,1-.37,1.95,3.26,3.26,0,0,1-.79,1.21,3.32,3.32,0,0,1-1.2.78,5.6,5.6,0,0,1-2,.36c-1.12.05-1.45.07-4.26.07s-3.14,0-4.25-.07a5.72,5.72,0,0,1-2-.37,3.18,3.18,0,0,1-1.21-.79,3.22,3.22,0,0,1-.79-1.2,6.12,6.12,0,0,1-.36-2c0-1.1-.06-1.45-.06-4.24s0-3.14.06-4.26a6.12,6.12,0,0,1,.36-2,3.18,3.18,0,0,1,.79-1.21,3.16,3.16,0,0,1,1.21-.78,5.64,5.64,0,0,1,2-.37c1.11,0,1.44-.05,4.25-.05ZM12,6.6A5.4,5.4,0,1,0,17.4,12,5.4,5.4,0,0,0,12,6.6Zm0,8.9A3.5,3.5,0,1,1,15.5,12,3.49,3.49,0,0,1,12,15.5Zm6.87-9.11a1.26,1.26,0,1,1-1.26-1.26A1.27,1.27,0,0,1,18.87,6.39Z" transform="translate(0 0)"/></svg>