<svg id="Layer_1" data-name="Layer 1" xmlns="http://www.w3.org/2000/svg" viewBox="0 0 24 24"><defs><style>.cls-1{fill:#fff;}.cls-2{fill:red;}</style></defs><title>youtube-colored</title><rect class="cls-1" width="24" height="24"/><path class="cls-2" d="M21.49,7.2a2.49,2.49,0,0,0-1.75-1.76C18.19,5,12,5,12,5s-6.19,0-7.74.42A2.49,2.49,0,0,0,2.51,7.2,26.4,26.4,0,0,0,2.1,12a26.4,26.4,0,0,0,.41,4.8,2.49,2.49,0,0,0,1.75,1.76C5.81,19,12,19,12,19s6.19,0,7.74-.42a2.49,2.49,0,0,0,1.75-1.76A26.4,26.4,0,0,0,21.9,12,26.4,26.4,0,0,0,21.49,7.2ZM10,14.94V9.06L15.15,12Z"/></svg>